<svg width="33" height="32" viewBox="0 0 33 32" fill="none" xmlns="http://www.w3.org/2000/svg">
<path d="M1.33594 19.5261C1.33594 18.0194 1.63572 16.5274 2.2182 15.1355C2.80069 13.7434 3.65442 12.4786 4.73071 11.4132C5.80699 10.3478 7.08467 9.50267 8.49087 8.92607C9.89714 8.34953 11.4043 8.05273 12.9264 8.05273V19.5261H1.33594Z" fill="#442781"/>
<path d="M1.33594 19.5273C1.33594 21.0341 1.63572 22.526 2.2182 23.9181C2.80069 25.3101 3.65442 26.5749 4.73071 27.6403C5.80699 28.7057 7.08467 29.5508 8.49087 30.1274C9.89714 30.704 11.4043 31.0007 12.9264 31.0007V19.5273H1.33594Z" fill="#61459C"/>
<path d="M24.5161 19.5273C24.5161 21.0341 24.2165 22.526 23.6341 23.9181C23.0516 25.3101 22.1979 26.5749 21.1214 27.6403C20.0452 28.7057 18.7675 29.5508 17.3612 30.1274C15.955 30.704 14.4478 31.0007 12.9258 31.0007V19.5273H24.5161Z" fill="#A992DB"/>
<path d="M31.663 9.61467C31.663 14.3724 27.7665 18.2293 22.9603 18.2293H14.2578V9.61467C14.2578 4.85693 18.1541 1 22.9603 1C27.7665 1 31.663 4.85693 31.663 9.61467Z" fill="#FF7917"/>
</svg>
