<svg width="16" height="16" viewBox="0 0 16 16" fill="none" xmlns="http://www.w3.org/2000/svg">
<path fill-rule="evenodd" clip-rule="evenodd" d="M1.66797 4.66667C1.66797 4.29848 1.96645 4 2.33464 4H4.0013C4.36949 4 4.66797 4.29848 4.66797 4.66667C4.66797 5.03485 4.36949 5.33333 4.0013 5.33333H2.33464C1.96645 5.33333 1.66797 5.03485 1.66797 4.66667Z" fill="#3F4E65"/>
<path fill-rule="evenodd" clip-rule="evenodd" d="M1.66797 11.3327C1.66797 10.9645 1.96645 10.666 2.33464 10.666H5.66797C6.03616 10.666 6.33464 10.9645 6.33464 11.3327C6.33464 11.7009 6.03616 11.9993 5.66797 11.9993H2.33464C1.96645 11.9993 1.66797 11.7009 1.66797 11.3327Z" fill="#3F4E65"/>
<path fill-rule="evenodd" clip-rule="evenodd" d="M13.6654 11.9993H11.9987C11.6305 11.9993 11.332 11.7009 11.332 11.3327C11.332 10.9645 11.6305 10.666 11.9987 10.666H13.6654C14.0336 10.666 14.332 10.9645 14.332 11.3327C14.332 11.7009 14.0336 11.9993 13.6654 11.9993Z" fill="#3F4E65"/>
<path fill-rule="evenodd" clip-rule="evenodd" d="M13.668 5.33333H10.3346C9.96644 5.33333 9.66797 5.03486 9.66797 4.66667C9.66797 4.29848 9.96644 4 10.3346 4H13.668C14.0362 4 14.3346 4.29848 14.3346 4.66667C14.3346 5.03486 14.0362 5.33333 13.668 5.33333Z" fill="#3F4E65"/>
<path fill-rule="evenodd" clip-rule="evenodd" d="M3.5 3.33268C3.5 2.68835 4.02233 2.16602 4.66667 2.16602H7.33333C7.97767 2.16602 8.5 2.68835 8.5 3.33268V5.99935C8.5 6.64368 7.97767 7.16602 7.33333 7.16602H4.66667C4.02233 7.16602 3.5 6.64368 3.5 5.99935V3.33268Z" fill="#3F4E65"/>
<path fill-rule="evenodd" clip-rule="evenodd" d="M7.5 10.0007C7.5 9.35632 8.02233 8.83398 8.66667 8.83398H11.3333C11.9777 8.83398 12.5 9.35632 12.5 10.0007V12.6673C12.5 13.3117 11.9777 13.834 11.3333 13.834H8.66667C8.02233 13.834 7.5 13.3117 7.5 12.6673V10.0007Z" fill="#3F4E65"/>
</svg>
