<svg width="16" height="16" viewBox="0 0 16 16" fill="none" xmlns="http://www.w3.org/2000/svg">
<path fill-rule="evenodd" clip-rule="evenodd" d="M2.5013 2C1.48878 2 0.667969 2.82081 0.667969 3.83333V11.8333C0.667969 12.8459 1.48878 13.6667 2.5013 13.6667H13.168C14.1805 13.6667 15.0013 12.8459 15.0013 11.8333V3.83333C15.0013 2.82081 14.1805 2 13.168 2H2.5013ZM4.08666 4.73486C3.84813 4.59572 3.54197 4.67629 3.40283 4.91481C3.26369 5.15334 3.34426 5.4595 3.58278 5.59864L6.91097 7.54007C7.48177 7.87307 8.18764 7.87307 8.7585 7.54007L12.0866 5.59864C12.3252 5.4595 12.4058 5.15334 12.2666 4.91481C12.1274 4.67629 11.8213 4.59572 11.5828 4.73486L8.25463 6.67627C7.99517 6.82767 7.6743 6.82767 7.41483 6.67627L4.08666 4.73486Z" fill="#227A5F"/>
</svg>
