<svg width="137" height="40" viewBox="0 0 137 40" fill="none" xmlns="http://www.w3.org/2000/svg">
<path fill-rule="evenodd" clip-rule="evenodd" d="M1 8V12.0976H6.4479V26.7317H11.2944V12.0976H16.7423V8H1ZM23.5456 18.8292V26.7317H18.6637V8H23.3687V15.3536H23.5102C23.8168 14.4573 24.3268 13.7591 25.0402 13.2591C25.7536 12.753 26.6115 12.5 27.6138 12.5C28.5748 12.5 29.4091 12.7256 30.1166 13.1768C30.8301 13.628 31.3813 14.25 31.7705 15.0427C32.1655 15.8353 32.3601 16.7439 32.3542 17.7683V26.7317H27.4723V18.8292C27.4782 18.1341 27.3102 17.5884 26.9682 17.1921C26.6321 16.7957 26.1516 16.5975 25.5266 16.5975C25.1316 16.5975 24.7837 16.689 24.483 16.8719C24.1882 17.0488 23.9583 17.3049 23.7932 17.6402C23.634 17.9695 23.5515 18.3658 23.5456 18.8292ZM59.7595 8L63.4739 21.2073H63.6155L67.3299 8H72.884L66.9054 26.7317H60.184L54.2055 8H59.7595ZM92.6414 8V26.7317H87.7595V8H92.6414ZM100.011 26.7317V8H95.1287V26.7317H100.011ZM109.007 26.9876C107.557 26.9876 106.307 26.701 105.257 26.1279C104.214 25.5486 103.409 24.7193 102.843 23.6401C102.283 22.5547 102.003 21.2559 102.003 19.7437C102.003 18.2925 102.286 17.0242 102.852 15.9389C103.418 14.8535 104.217 14.009 105.249 13.4053C106.28 12.8017 107.498 12.4999 108.901 12.4999C109.927 12.4999 110.856 12.6645 111.687 12.9938C112.518 13.323 113.229 13.8017 113.818 14.4297C114.408 15.0517 114.862 15.8078 115.18 16.698C115.499 17.5883 115.658 18.5913 115.658 19.7072V20.8779H106.814V21.0974C106.814 21.5486 106.905 21.9511 107.088 22.3047C107.271 22.6584 107.533 22.9358 107.875 23.137C108.217 23.3382 108.63 23.4389 109.113 23.4389C109.449 23.4389 109.756 23.3901 110.033 23.2925C110.316 23.195 110.558 23.0547 110.758 22.8718C110.959 22.6828 111.106 22.4572 111.201 22.195H115.658C115.505 23.1706 115.142 24.0181 114.57 24.7376C113.998 25.451 113.241 26.0059 112.297 26.4023C111.36 26.7925 110.263 26.9876 109.007 26.9876ZM107.123 17.0273C106.929 17.3322 106.826 17.6889 106.814 18.0974H111.165C111.159 17.695 111.059 17.3413 110.864 17.0364C110.676 16.7255 110.419 16.4846 110.095 16.3139C109.777 16.137 109.414 16.0486 109.007 16.0486C108.612 16.0486 108.25 16.137 107.919 16.3139C107.589 16.4846 107.324 16.7224 107.123 17.0273ZM120.281 32C119.721 32 119.187 31.9543 118.68 31.8628C118.173 31.7774 117.728 31.6585 117.345 31.5061L118.406 27.9207C118.807 28.0671 119.173 28.1616 119.503 28.2043C119.839 28.247 120.125 28.2226 120.361 28.1311C120.602 28.0396 120.776 27.8659 120.882 27.6098L120.989 27.3537L116.213 12.683H121.307L123.5 22.4147H123.642L125.87 12.683H131L126.047 27.9024C125.8 28.6768 125.44 29.372 124.968 29.9878C124.503 30.6098 123.889 31.1006 123.129 31.4604C122.368 31.8201 121.419 32 120.281 32ZM74.5311 26.512C75.1974 26.8047 75.9638 26.951 76.8306 26.951C77.4202 26.951 77.9596 26.8779 78.449 26.7315C78.9443 26.5852 79.3835 26.3504 79.7668 26.0273C80.1559 25.7041 80.4861 25.2803 80.7573 24.7559H80.8634V26.7315H85.4269V17.1096C85.4269 16.4572 85.2825 15.8535 84.9936 15.2986C84.7105 14.7377 84.2978 14.2499 83.7554 13.8352C83.213 13.4145 82.5556 13.0883 81.7832 12.8566C81.0108 12.6188 80.1382 12.4999 79.1654 12.4999C77.8152 12.4999 76.6891 12.7194 75.787 13.1584C74.8849 13.5913 74.198 14.1706 73.7263 14.8962C73.2605 15.6157 72.9982 16.4023 72.9392 17.2559H77.432C77.4909 16.823 77.6648 16.5029 77.9538 16.2956C78.2486 16.0822 78.6288 15.9755 79.0946 15.9755C79.5191 15.9755 79.867 16.073 80.1382 16.2681C80.4094 16.4633 80.545 16.7437 80.545 17.1096V17.1462C80.545 17.4145 80.4419 17.6309 80.2355 17.7956C80.0291 17.9541 79.6931 18.0791 79.2273 18.1706C78.7674 18.2559 78.1572 18.3291 77.3966 18.3901C76.6949 18.445 76.0405 18.5639 75.4332 18.7468C74.8318 18.9297 74.3041 19.195 73.8501 19.5425C73.3961 19.8901 73.0424 20.3383 72.7889 20.887C72.5353 21.4297 72.4086 22.0852 72.4086 22.8535C72.4086 23.7864 72.5972 24.5547 72.9746 25.1584C73.3519 25.762 73.8708 26.2132 74.5311 26.512ZM79.4661 23.5303C79.1418 23.6889 78.7939 23.7681 78.4225 23.7681C78.0098 23.7681 77.6707 23.6645 77.4054 23.4571C77.1401 23.2498 77.0074 22.9511 77.0074 22.5608C77.0074 22.3169 77.0635 22.0974 77.1755 21.9023C77.2934 21.7011 77.4703 21.5334 77.7061 21.3992C77.9479 21.259 78.2574 21.1584 78.6347 21.0974C78.8293 21.0669 79.015 21.0334 79.1919 20.9968C79.3747 20.9602 79.5457 20.9206 79.7049 20.8779C79.8699 20.8352 80.0232 20.7895 80.1647 20.7407C80.3121 20.6919 80.4507 20.6401 80.5804 20.5852V21.7559C80.5804 22.1828 80.4772 22.5456 80.2709 22.8443C80.0645 23.1431 79.7962 23.3718 79.4661 23.5303ZM37.5235 26.1279C38.573 26.701 39.8229 26.9876 41.2734 26.9876C42.5292 26.9876 43.6259 26.7925 44.5633 26.4023C45.5067 26.0059 46.2643 25.451 46.8362 24.7376C47.4081 24.0181 47.7707 23.1706 47.924 22.195H43.4667C43.3723 22.4572 43.2249 22.6828 43.0245 22.8718C42.824 23.0547 42.5823 23.195 42.2993 23.2925C42.0222 23.3901 41.7156 23.4389 41.3795 23.4389C40.896 23.4389 40.4833 23.3382 40.1413 23.137C39.7994 22.9358 39.537 22.6584 39.3542 22.3047C39.1714 21.9511 39.0801 21.5486 39.0801 21.0974V20.8779H47.924V19.7072C47.924 18.5913 47.7648 17.5883 47.4465 16.698C47.1281 15.8078 46.6741 15.0517 46.0845 14.4297C45.4949 13.8017 44.7844 13.323 43.9531 12.9938C43.1217 12.6645 42.1931 12.4999 41.1672 12.4999C39.764 12.4999 38.5465 12.8017 37.5147 13.4053C36.4829 14.009 35.684 14.8535 35.1179 15.9389C34.5519 17.0242 34.2689 18.2925 34.2689 19.7437C34.2689 21.2559 34.549 22.5547 35.1091 23.6401C35.6751 24.7193 36.4799 25.5486 37.5235 26.1279ZM39.0801 18.0974C39.0918 17.6889 39.195 17.3322 39.3896 17.0273C39.5901 16.7224 39.8554 16.4846 40.1855 16.3139C40.5157 16.137 40.8783 16.0486 41.2734 16.0486C41.6802 16.0486 42.0428 16.137 42.3612 16.3139C42.6854 16.4846 42.9419 16.7255 43.1306 17.0364C43.3252 17.3413 43.4254 17.695 43.4313 18.0974H39.0801Z" fill="white"/>
</svg>
