<svg width="16" height="16" viewBox="0 0 16 16" fill="none" xmlns="http://www.w3.org/2000/svg">
<path d="M6 1V5.33332H10V1H6Z" fill="#227A5F"/>
<path d="M4.66687 1V5.33332H1V3.66667C1 2.19391 2.19391 1 3.66667 1H4.66687Z" fill="#227A5F"/>
<path d="M1 6.66602V12.3327C1 13.8054 2.19391 14.9994 3.66667 14.9994H4.66687V6.66602H1Z" fill="#227A5F"/>
<path d="M6 14.9994H10V6.66602H6V14.9994Z" fill="#227A5F"/>
<path d="M11.332 14.9994H12.3318C13.8046 14.9994 14.9985 13.8054 14.9985 12.3327V6.66602H11.332V14.9994Z" fill="#227A5F"/>
<path d="M14.9985 5.33332V3.66667C14.9985 2.19391 13.8046 1 12.3318 1H11.332V5.33332H14.9985Z" fill="#227A5F"/>
</svg>
