<svg width="16" height="16" viewBox="0 0 16 16" fill="none" xmlns="http://www.w3.org/2000/svg">
<path fill-rule="evenodd" clip-rule="evenodd" d="M1.33203 14.6667C1.33203 14.2985 1.63051 14 1.9987 14H13.9987C14.3669 14 14.6654 14.2985 14.6654 14.6667C14.6654 15.0349 14.3669 15.3333 13.9987 15.3333H1.9987C1.63051 15.3333 1.33203 15.0349 1.33203 14.6667Z" fill="#227A5F"/>
<path fill-rule="evenodd" clip-rule="evenodd" d="M2.83203 2.66732C2.83203 1.65479 3.65284 0.833984 4.66536 0.833984L11.332 0.833991C12.3446 0.833991 13.1654 1.6548 13.1654 2.66732V14.6673C13.1654 14.9434 12.9415 15.1673 12.6654 15.1673H3.33203C3.05589 15.1673 2.83203 14.9434 2.83203 14.6673V2.66732ZM5.83203 12.0006C5.83206 11.3563 6.35439 10.834 6.9987 10.834H8.9987C9.64303 10.834 10.1654 11.3564 10.1654 12.0007V14.5782C10.1654 14.8544 9.9415 15.0782 9.66536 15.0782C9.38916 15.0782 9.16536 14.8544 9.16536 14.5782V12.0007C9.16536 11.9086 9.09076 11.834 8.9987 11.834H6.9987C6.90663 11.834 6.83203 11.9086 6.83203 12.0007V14.5782C6.83203 14.8544 6.60814 15.0782 6.332 15.0782C6.05586 15.0782 5.83202 14.8544 5.83203 14.5782V12.0006ZM6.66536 3.50065C6.38922 3.50065 6.16536 3.72451 6.16536 4.00065C6.16536 4.27679 6.38922 4.50065 6.66536 4.50065H9.33203C9.60816 4.50065 9.83203 4.27679 9.83203 4.00065C9.83203 3.72451 9.60816 3.50065 9.33203 3.50065H6.66536ZM6.66536 5.83398C6.38922 5.83398 6.16536 6.05784 6.16536 6.33398C6.16536 6.61012 6.38922 6.83398 6.66536 6.83398H9.33203C9.60816 6.83398 9.83203 6.61012 9.83203 6.33398C9.83203 6.05784 9.60816 5.83398 9.33203 5.83398H6.66536ZM6.66536 8.16732C6.38922 8.16732 6.16536 8.39118 6.16536 8.66732C6.16536 8.94345 6.38922 9.16732 6.66536 9.16732H9.33203C9.60816 9.16732 9.83203 8.94345 9.83203 8.66732C9.83203 8.39118 9.60816 8.16732 9.33203 8.16732H6.66536Z" fill="#227A5F"/>
</svg>
