<svg width="16" height="16" viewBox="0 0 16 16" fill="none" xmlns="http://www.w3.org/2000/svg">
<path fill-rule="evenodd" clip-rule="evenodd" d="M9.135 1.59084C8.46933 1.06607 7.53067 1.06608 6.865 1.59084L2.19833 5.2697C1.75735 5.61734 1.5 6.14792 1.5 6.70948V13.3327C1.5 14.3453 2.32081 15.1661 3.33333 15.1661H12.6667C13.6792 15.1661 14.5 14.3453 14.5 13.3327V6.70948C14.5 6.14792 14.2427 5.61734 13.8017 5.2697L9.135 1.59084ZM10 9.99948C9.6318 9.99948 9.33333 10.2979 9.33333 10.6661V11.9995C9.33333 12.3676 9.6318 12.6662 10 12.6662H11.3333C11.7015 12.6662 12 12.3676 12 11.9995V10.6661C12 10.2979 11.7015 9.99948 11.3333 9.99948H10Z" fill="#8094B0"/>
</svg>
