<svg width="20" height="20" viewBox="0 0 20 20" fill="none" xmlns="http://www.w3.org/2000/svg">
<path fill-rule="evenodd" clip-rule="evenodd" d="M3.0853 3.0853C3.46468 2.70594 4.07975 2.70594 4.45912 3.0853L9.60079 8.227L14.7425 3.0853C15.1218 2.70594 15.7369 2.70594 16.1163 3.0853C16.4956 3.46468 16.4956 4.07975 16.1163 4.45912L10.9746 9.60079L16.1163 14.7425C16.4956 15.1218 16.4956 15.7369 16.1163 16.1163C15.7369 16.4956 15.1218 16.4956 14.7425 16.1163L9.60079 10.9746L4.45912 16.1163C4.07975 16.4956 3.46468 16.4956 3.0853 16.1163C2.70594 15.7369 2.70594 15.1218 3.0853 14.7425L8.227 9.60079L3.0853 4.45912C2.70594 4.07975 2.70594 3.46468 3.0853 3.0853Z" fill="#EFFAF5"/>
</svg>
