<svg width="20" height="20" viewBox="0 0 20 20" fill="none" xmlns="http://www.w3.org/2000/svg">
<path fill-rule="evenodd" clip-rule="evenodd" d="M3.26392 7.96235C3.77418 7.56555 4.44055 7.5402 4.97059 7.80522L5.74406 8.19195C6.3087 8.47423 6.66537 9.0514 6.66537 9.68265V13.6526C6.66537 14.2839 6.3087 14.861 5.74406 15.1433L4.97059 15.5301C4.44055 15.7951 3.77418 15.7697 3.26392 15.3729C2.88901 15.0814 2.30738 14.5885 1.81194 13.9831C1.33505 13.4004 0.832031 12.5862 0.832031 11.6677C0.832031 10.7492 1.33505 9.9349 1.81194 9.35215C2.30738 8.74682 2.88901 8.25388 3.26392 7.96235Z" fill="#EFFAF5"/>
<path fill-rule="evenodd" clip-rule="evenodd" d="M10 2.50065C6.77834 2.50065 4.16667 5.11233 4.16667 8.33398V8.75065C4.16667 9.2109 3.79357 9.58398 3.33333 9.58398C2.8731 9.58398 2.5 9.2109 2.5 8.75065V8.33398C2.5 4.19185 5.85787 0.833984 10 0.833984C14.1422 0.833984 17.5 4.19185 17.5 8.33398V8.75065C17.5 9.2109 17.1269 9.58398 16.6667 9.58398C16.2064 9.58398 15.8333 9.2109 15.8333 8.75065V8.33398C15.8333 5.11233 13.2217 2.50065 10 2.50065Z" fill="#EFFAF5"/>
<path fill-rule="evenodd" clip-rule="evenodd" d="M16.668 13.75C17.1282 13.75 17.5013 14.1231 17.5013 14.5833V15C17.5013 17.3012 15.6358 19.1667 13.3346 19.1667H10.0013C9.54105 19.1667 9.16797 18.7936 9.16797 18.3333C9.16797 17.8731 9.54105 17.5 10.0013 17.5H13.3346C14.7154 17.5 15.8346 16.3807 15.8346 15V14.5833C15.8346 14.1231 16.2077 13.75 16.668 13.75Z" fill="#EFFAF5"/>
<path fill-rule="evenodd" clip-rule="evenodd" d="M15.0268 7.80522C15.5569 7.5402 16.2232 7.56555 16.7334 7.96235C17.1084 8.25388 17.69 8.74682 18.1854 9.35215C18.6624 9.9349 19.1654 10.7492 19.1654 11.6677C19.1654 12.5862 18.6624 13.4004 18.1854 13.9831C17.69 14.5885 17.1084 15.0814 16.7334 15.3729C16.2232 15.7697 15.5569 15.7951 15.0268 15.5301L14.2534 15.1433C13.6887 14.861 13.332 14.2839 13.332 13.6526V9.68265C13.332 9.0514 13.6887 8.47423 14.2534 8.19195L15.0268 7.80522Z" fill="#EFFAF5"/>
</svg>
