<svg width="20" height="20" viewBox="0 0 20 20" fill="none" xmlns="http://www.w3.org/2000/svg">
<path fill-rule="evenodd" clip-rule="evenodd" d="M8.93729 1.04102C8.30959 1.04102 7.7523 1.44268 7.5538 2.03818L6.98089 3.75693L6.09474 4.3174L4.22674 3.8552C3.60278 3.70081 2.9513 3.97316 2.62287 4.52571L1.48604 6.43828C1.12753 7.04144 1.24937 7.8144 1.77603 8.27803L3.05579 9.4046V10.5941L1.77642 11.7207C1.24989 12.1843 1.12813 12.9572 1.48659 13.5603L2.62348 15.473C2.9519 16.0255 3.60338 16.2978 4.22735 16.1435L6.11409 15.6767L6.90638 16.1209L7.42294 17.9049C7.60349 18.5285 8.17453 18.9577 8.8237 18.9577H11.1835C11.8328 18.9577 12.4038 18.5285 12.5844 17.9049L13.101 16.1208L13.8926 15.6767L15.7793 16.1435C16.4033 16.2978 17.0548 16.0255 17.3832 15.473L18.5415 13.5242C18.8829 12.9498 18.7904 12.217 18.3169 11.7456L16.9959 10.4303L16.9962 9.5686L18.3175 8.25307C18.791 7.78167 18.8835 7.04882 18.5421 6.4745L17.3838 4.52571C17.0554 3.97316 16.4039 3.70081 15.78 3.8552L13.912 4.3174L13.0258 3.75693L12.4529 2.03818C12.2544 1.44268 11.697 1.04102 11.0694 1.04102H8.93729ZM10.002 12.916C11.6128 12.916 12.9186 11.6102 12.9186 9.99935C12.9186 8.38852 11.6128 7.08268 10.002 7.08268C8.39112 7.08268 7.08529 8.38852 7.08529 9.99935C7.08529 11.6102 8.39112 12.916 10.002 12.916Z" fill="#EFFAF5"/>
</svg>
