<svg width="20" height="20" viewBox="0 0 20 20" fill="none" xmlns="http://www.w3.org/2000/svg">
<path fill-rule="evenodd" clip-rule="evenodd" d="M9.9987 2.50065C5.85656 2.50065 2.4987 5.85851 2.4987 10.0007C2.4987 14.1427 5.85656 17.5007 9.9987 17.5007C10.2591 17.5007 10.5163 17.4874 10.7692 17.4617C11.2271 17.4149 11.6361 17.7482 11.6828 18.2061C11.7295 18.664 11.3962 19.073 10.9384 19.1197C10.6291 19.1512 10.3156 19.1673 9.9987 19.1673C4.93608 19.1673 0.832031 15.0632 0.832031 10.0007C0.832031 4.93804 4.93608 0.833984 9.9987 0.833984C15.0613 0.833984 19.1654 4.93803 19.1654 10.0007C19.1654 10.6274 19.1023 11.2403 18.982 11.833C18.8905 12.2841 18.4507 12.5755 17.9997 12.484C17.5486 12.3925 17.2572 11.9527 17.3487 11.5017C17.4469 11.0173 17.4987 10.5154 17.4987 10.0007C17.4987 5.85852 14.1408 2.50065 9.9987 2.50065Z" fill="#EFFAF5"/>
<path fill-rule="evenodd" clip-rule="evenodd" d="M10.0013 5.83398C10.4616 5.83398 10.8346 6.20708 10.8346 6.66732V9.65548L11.8406 10.6614C12.166 10.9868 12.166 11.5145 11.8406 11.8399C11.5151 12.1653 10.9875 12.1653 10.6621 11.8399L9.41205 10.5899C9.2558 10.4337 9.16797 10.2217 9.16797 10.0007V6.66732C9.16797 6.20708 9.54105 5.83398 10.0013 5.83398Z" fill="#EFFAF5"/>
<path fill-rule="evenodd" clip-rule="evenodd" d="M12.7404 12.7986C12.5529 12.2046 13.1911 11.633 13.7721 11.9729L18.6064 14.8006C19.0738 15.0739 19.0743 15.7501 18.6073 16.0241L13.773 18.8616C13.1923 19.2024 12.5533 18.6315 12.7402 18.0371L13.5653 15.4128L12.7404 12.7986Z" fill="#EFFAF5"/>
</svg>
