<svg width="409" height="238" viewBox="0 0 409 238" fill="none" xmlns="http://www.w3.org/2000/svg">
<path fill-rule="evenodd" clip-rule="evenodd" d="M-59.0782 119.31C-63.4437 131.379 -72.4873 142.552 -90.1027 152.068C-118.034 167.157 -130.903 193.319 -135.632 219.946C-140.363 246.578 -136.94 273.632 -132.326 290.4L-133.093 290.609C-137.732 273.752 -141.172 246.577 -136.416 219.805C-131.659 193.027 -118.693 166.608 -90.4828 151.369C-73.0098 141.929 -64.1158 130.895 -59.8269 119.038C-55.531 107.161 -55.8369 94.4138 -56.8587 81.5022C-57.0436 79.1661 -57.2523 76.8243 -57.461 74.4817C-59.5537 50.9935 -61.6539 27.4217 -39.8788 8.68383C-27.9234 -1.60406 -13.3355 -6.54421 1.71009 -9.95701C7.50193 -11.2708 13.3718 -12.3602 19.1878 -13.4397C20.9247 -13.762 22.6567 -14.0835 24.3804 -14.4097C31.8823 -15.8298 39.2324 -17.3419 46.1776 -19.4194C60.0642 -23.5733 72.2954 -29.9764 80.8297 -42.376C89.3686 -54.7823 94.2474 -73.2507 93.2929 -101.62C91.3796 -158.483 98.3909 -199.555 108.959 -226.842C114.243 -240.485 120.42 -250.694 126.827 -257.707C133.231 -264.717 139.885 -268.554 146.119 -269.399L146.228 -268.611C140.237 -267.799 133.741 -264.094 127.416 -257.17C121.092 -250.249 114.96 -240.132 109.701 -226.553C99.1837 -199.396 92.1775 -158.439 94.0884 -101.645C95.046 -73.1852 90.158 -54.5242 81.486 -41.9247C72.8094 -29.3183 60.3855 -22.839 46.4077 -18.6579C39.4206 -16.5679 32.0362 -15.0494 24.5304 -13.6287C22.8003 -13.3012 21.0641 -12.979 19.3246 -12.6561C13.5117 -11.5772 7.66299 -10.4917 1.88816 -9.18182C-13.1149 -5.77866 -27.5504 -0.874396 -39.3584 9.28657C-60.81 27.7461 -58.7546 50.896 -56.6652 74.4298C-56.4579 76.7646 -56.2502 79.1032 -56.0652 81.4414C-55.0426 94.3621 -54.7196 107.26 -59.0782 119.31Z" fill="#11362D"/>
<path fill-rule="evenodd" clip-rule="evenodd" d="M176.174 248.549C174.295 263.805 167.109 277.612 149.592 287.246C121.85 302.502 103.007 326.071 92.2073 349.994C81.403 373.928 78.6685 398.173 83.085 414.768L82.3256 414.982C77.8487 398.16 80.6368 373.721 91.4925 349.673C102.353 325.615 121.307 301.904 149.222 286.552C166.489 277.055 173.543 263.49 175.394 248.461C177.249 233.399 173.878 216.865 170.252 201.471C169.817 199.627 169.379 197.799 168.946 195.992C167.574 190.268 166.252 184.754 165.26 179.611C163.955 172.844 163.21 166.678 163.675 161.467C164.141 156.249 165.825 151.946 169.414 148.971C172.994 146.003 178.403 144.413 186.2 144.466C197.809 144.544 206.659 142.52 213.486 138.964C220.309 135.41 225.138 130.313 228.689 124.203C235.116 113.145 237.348 98.8007 239.606 84.2919C239.85 82.7254 240.094 81.1569 240.343 79.5904C242.897 63.5698 246.039 47.7638 255.6 36.7145C265.191 25.6285 281.16 19.4121 309.151 22.3443C316.573 23.1218 322.559 21.1847 327.423 17.2063C332.299 13.2178 336.074 7.15538 339.013 -0.357065C344.893 -15.3874 347.375 -36.084 348.734 -57.1417C349.349 -66.6787 349.734 -76.2787 350.101 -85.4491C350.139 -86.3973 350.177 -87.341 350.214 -88.2795C350.618 -98.291 351.028 -107.72 351.731 -115.889C352.433 -124.052 353.431 -130.986 355.02 -135.996C355.814 -138.501 356.764 -140.551 357.917 -142.038C359.076 -143.53 360.455 -144.471 362.092 -144.706L362.194 -143.923C360.81 -143.724 359.602 -142.93 358.534 -141.555C357.463 -140.174 356.548 -138.224 355.768 -135.764C354.208 -130.843 353.216 -123.984 352.514 -115.83C351.813 -107.682 351.404 -98.2712 351 -88.257C350.962 -87.3177 350.924 -86.3731 350.886 -85.4237C350.519 -76.2555 350.134 -66.6465 349.518 -57.0999C348.159 -36.0411 345.674 -15.2326 339.744 -0.0747263C336.778 7.50694 332.937 13.7094 327.914 17.8183C322.878 21.9372 316.68 23.93 309.06 23.1317C281.208 20.214 265.546 26.4168 256.189 37.2304C246.801 48.0809 243.678 63.6551 241.12 79.7065C240.87 81.2746 240.625 82.8474 240.38 84.4204C238.129 98.8955 235.874 113.399 229.366 124.597C225.749 130.82 220.815 136.033 213.84 139.666C206.87 143.297 197.886 145.336 186.185 145.257C178.479 145.205 173.286 146.78 169.909 149.579C166.541 152.372 164.913 156.439 164.458 161.528C164.003 166.625 164.73 172.702 166.032 179.45C167.02 184.575 168.336 190.064 169.707 195.783C170.141 197.594 170.58 199.427 171.017 201.279C174.641 216.664 178.049 233.327 176.174 248.549Z" fill="#227A5F"/>
<path fill-rule="evenodd" clip-rule="evenodd" d="M-53.3769 122.43C-57.6885 134.576 -66.6728 145.824 -84.234 155.373C-112.078 170.513 -125.112 196.602 -130.045 223.132C-134.98 249.667 -131.799 276.601 -127.251 293.329L-128.015 293.54C-132.589 276.719 -135.785 249.663 -130.824 222.989C-125.863 196.308 -112.731 169.966 -84.6104 154.675C-67.1939 145.205 -58.3593 134.099 -54.1234 122.166C-49.8804 110.213 -50.2337 97.3861 -51.2875 84.4305C-51.4745 82.1312 -51.684 79.8273 -51.8934 77.5239C-54.0375 53.9388 -56.1779 30.394 -34.2273 12.0807L-34.2247 12.0786C-22.0014 2.05349 -7.52754 -3.00223 7.25492 -6.67911C12.6281 -8.01558 18.0514 -9.17196 23.4234 -10.3174C25.4388 -10.7471 27.4469 -11.1752 29.4425 -11.6108C36.7636 -13.2088 43.9234 -14.9078 50.6956 -17.1532C64.2356 -21.6425 76.1969 -28.3063 84.752 -40.6752C93.3109 -53.0495 98.4973 -71.1868 98.3711 -98.696C97.4465 -153.915 104.535 -194.938 114.917 -222.594C120.108 -236.421 126.127 -246.92 132.391 -254.181C138.652 -261.439 145.183 -265.49 151.399 -266.351L151.506 -265.565C145.549 -264.739 139.178 -260.837 132.99 -253.663C126.804 -246.494 120.827 -236.084 115.658 -222.316C105.322 -194.781 98.2397 -153.863 99.1634 -98.7098L99.1635 -98.705C99.2905 -71.102 94.0884 -52.7818 85.4029 -40.2244C76.7134 -27.6612 64.5738 -20.9192 50.9425 -16.3997C44.129 -14.1406 36.9355 -12.4344 29.609 -10.8353C27.6055 -10.398 25.5927 -9.96886 23.5748 -9.53861C18.207 -8.39408 12.8032 -7.2419 7.44374 -5.90883C-7.29957 -2.2417 -21.6362 2.77882 -33.7224 12.6909C-55.3355 30.7236 -53.242 53.8339 -51.101 77.4697C-50.8931 79.7642 -50.6848 82.0636 -50.4977 84.3638C-49.4433 97.3274 -49.0725 110.304 -53.3769 122.43Z" fill="#11382E"/>
<path fill-rule="evenodd" clip-rule="evenodd" d="M-46.6089 126.154C-50.8021 138.417 -59.7748 149.716 -77.5371 159.15C-105.699 174.109 -118.871 200.142 -123.804 226.694C-128.737 253.253 -125.417 280.288 -120.634 297.151L-121.409 297.355C-126.22 280.396 -129.555 253.235 -124.596 226.538C-119.635 199.833 -106.365 173.55 -77.9265 158.445C-60.3134 149.09 -51.492 137.935 -47.3722 125.887C-43.2454 113.817 -43.8193 100.806 -45.0934 87.6958C-45.3141 85.4247 -45.556 83.15 -45.7977 80.8769C-46.9482 70.0563 -48.0949 59.2719 -46.937 49.0894C-45.5323 36.7359 -40.7362 25.2404 -28.4767 15.5477L-28.4714 15.5434C-15.8131 5.88654 -1.21448 0.848861 13.5512 -2.95899C18.5358 -4.2445 23.5324 -5.38863 28.4803 -6.52159C38.2182 -8.7514 47.7677 -10.9381 56.6673 -14.0742C70.0621 -18.7945 81.9009 -25.6431 90.5097 -37.9607C99.1214 -50.2824 104.534 -68.1234 104.976 -94.891C104.438 -148.722 111.251 -189.899 121.306 -218.027C126.333 -232.091 132.175 -242.908 138.325 -250.414C144.472 -257.915 150.958 -262.148 157.279 -262.956L157.394 -262.164C151.357 -261.392 145.035 -257.326 138.954 -249.905C132.877 -242.489 127.073 -231.76 122.065 -217.75C112.051 -189.732 105.244 -148.652 105.781 -94.8816L105.781 -94.8711C105.338 -68.0064 99.906 -49.9926 91.1743 -37.4993C82.4392 -25.001 70.4347 -18.0745 56.9479 -13.3218C48.0073 -10.1712 38.3784 -7.96587 28.6115 -5.72898C23.6744 -4.59826 18.7022 -3.45948 13.7657 -2.18642C-0.964519 1.61232 -15.4391 6.61725 -27.9706 16.1765C-40.0386 25.7188 -44.7514 37.0101 -46.1366 49.1913C-47.2836 59.279 -46.1489 69.9578 -44.9993 80.7765C-44.757 83.0568 -44.514 85.3434 -44.2916 87.6319C-43.0168 100.749 -42.4227 113.911 -46.6089 126.154Z" fill="#123A30"/>
<path fill-rule="evenodd" clip-rule="evenodd" d="M-39.8812 129.838C-44.0623 142.162 -52.9257 153.571 -70.4159 163.164C-98.1461 178.374 -111.539 204.306 -116.882 230.645C-122.226 256.99 -119.506 283.702 -115.046 300.376L-115.807 300.589C-120.293 283.815 -123.026 256.978 -117.653 230.494C-112.279 204.004 -98.786 177.827 -70.7876 162.47C-53.4475 152.959 -44.7342 141.697 -40.6262 129.589C-36.511 117.459 -37.0007 104.436 -38.1603 91.362C-38.3569 89.1457 -38.5729 86.9274 -38.7885 84.7118C-39.8424 73.8863 -40.8897 63.1278 -39.6374 53.0093C-38.1246 40.7868 -33.2565 29.4696 -21.0288 20.0046L-21.0207 19.9983L-21.0206 19.9984C-8.17821 10.5735 6.09173 5.28795 20.3424 1.05239C24.6499 -0.227897 28.9514 -1.41133 33.2109 -2.58321C43.0657 -5.29451 52.6966 -7.94418 61.6614 -11.5893C74.4797 -16.8012 85.8758 -24.0287 94.4828 -36.3254C103.092 -48.6251 108.939 -66.0368 110.581 -91.667C111.702 -143.283 118.893 -184.237 128.843 -212.731C133.817 -226.978 139.487 -238.127 145.446 -245.938C151.398 -253.741 157.677 -258.262 163.877 -259.146L163.98 -258.362C158.077 -257.52 151.964 -253.188 146.069 -245.459C140.179 -237.738 134.543 -226.674 129.585 -212.475C119.67 -184.081 112.487 -143.213 111.368 -91.6492L111.367 -91.6409L111.367 -91.6324C109.72 -65.9045 103.846 -48.3329 95.1252 -35.8738C86.4016 -23.4105 74.8576 -16.1035 61.9502 -10.8553C52.9404 -7.19191 43.2366 -4.52206 33.3602 -1.80471C29.1111 -0.635635 24.8301 0.542251 20.5586 1.81182C6.33733 6.03867 -7.82658 11.2924 -20.5566 20.6337C-32.5854 29.9465 -37.365 41.0538 -38.8559 53.0994C-40.0964 63.1219 -39.0601 73.7741 -38.0071 84.5988C-37.7909 86.8211 -37.574 89.0508 -37.3759 91.2838C-36.2158 104.364 -35.7072 117.535 -39.8812 129.838Z" fill="#123C31"/>
<path fill-rule="evenodd" clip-rule="evenodd" d="M-32.0788 134.129C-36.1828 146.555 -44.9841 158.05 -62.4583 167.655C-90.1623 182.882 -103.749 208.729 -109.299 234.974C-114.85 261.226 -112.349 287.836 -107.91 304.496L-108.67 304.71C-113.136 287.946 -115.648 261.208 -110.068 234.818C-104.486 208.421 -90.7972 182.333 -62.8289 166.961C-45.5079 157.441 -36.8569 146.096 -32.8247 133.887C-28.7851 121.657 -29.3653 108.516 -30.5998 95.3667C-30.8044 93.1874 -31.0271 91.0072 -31.2494 88.831C-32.3654 77.9063 -33.4711 67.0823 -32.2236 56.9744C-30.7233 44.8182 -25.8195 33.6682 -13.4774 24.533L-13.4719 24.529L-13.4663 24.5251C-0.269722 15.4389 13.9104 10.0393 27.8912 5.50855C31.4641 4.35069 35.0216 3.25018 38.5459 2.1599C48.8298 -1.02143 58.8315 -4.11549 68.1099 -8.29214C80.5512 -13.8925 91.6502 -21.4239 100.289 -33.6791C108.928 -45.9358 115.13 -62.9512 117.718 -87.5587C119.904 -137.213 127.119 -178.145 136.82 -207.112C141.671 -221.595 147.149 -233.103 152.942 -241.217C158.729 -249.32 164.875 -254.098 171.078 -254.989L171.18 -254.205C165.296 -253.36 159.317 -248.796 153.579 -240.76C147.848 -232.735 142.401 -221.307 137.565 -206.867C127.894 -177.989 120.687 -137.13 118.503 -87.5209L118.502 -87.5088L118.501 -87.4968C115.905 -62.7912 109.671 -45.6287 100.928 -33.226C92.1831 -20.8196 80.9519 -13.2095 68.4238 -7.57001C59.0969 -3.37154 49.0278 -0.256745 38.7303 2.92872C35.2147 4.01625 31.6725 5.11199 28.1241 6.26191C14.1665 10.7851 0.0764176 16.1557 -13.022 25.1731C-25.1552 34.1557 -29.9655 45.0895 -31.4433 57.0629C-32.6787 67.0729 -31.5847 77.7892 -30.4695 88.7141C-30.2467 90.8967 -30.023 93.0877 -29.8169 95.283C-28.5819 108.437 -27.9821 121.726 -32.0788 134.129Z" fill="#133E33"/>
<path fill-rule="evenodd" clip-rule="evenodd" d="M-24.1847 138.459C-28.2028 150.995 -36.9407 162.581 -54.4124 172.189C-82.1114 187.421 -95.9038 213.179 -101.662 239.331C-107.422 265.49 -105.132 292.004 -100.699 308.659L-101.459 308.873C-105.92 292.109 -108.219 265.466 -102.429 239.169C-96.6377 212.865 -82.7421 186.87 -54.7826 171.495C-37.4679 161.973 -28.8804 150.541 -24.9325 138.224C-20.9771 125.883 -21.6633 112.612 -22.9882 99.376C-23.2027 97.2329 -23.4342 95.0902 -23.665 92.9526C-24.8566 81.9187 -26.0335 71.0218 -24.7972 60.925C-23.317 48.8356 -18.377 37.8627 -5.90483 29.0846L-5.89787 29.0797L-5.89073 29.0751C7.69221 20.3548 21.7905 14.8415 35.4975 10.0044C38.1227 9.07802 40.7325 8.17672 43.3212 7.2827C54.2626 3.50407 64.828 -0.144687 74.5843 -5.0085C86.6359 -11.0166 97.4266 -18.8678 106.1 -31.0774C114.774 -43.2872 121.351 -59.8829 124.931 -83.4096C128.217 -130.989 135.437 -171.911 144.866 -201.386C149.58 -216.123 154.852 -228.016 160.473 -236.452C166.084 -244.873 172.093 -249.923 178.305 -250.817L178.407 -250.033C172.536 -249.188 166.696 -244.379 161.124 -236.016C155.561 -227.667 150.317 -215.852 145.614 -201.151C136.21 -171.754 128.997 -130.893 125.714 -83.3481L125.712 -83.3317L125.71 -83.3155C122.118 -59.6924 115.506 -42.9636 106.738 -30.622C97.9681 -18.2775 87.0613 -10.3496 74.9261 -4.29988C65.119 0.589279 54.4924 4.25893 43.5471 8.03864C40.9634 8.93086 38.362 9.8292 35.7494 10.7512C22.0581 15.5827 8.03352 21.0705 -5.46684 29.7366C-17.719 38.3627 -22.56 49.1124 -24.017 61.0124C-25.2411 71.0093 -24.0768 81.7966 -22.8859 92.8319C-22.6545 94.9756 -22.4222 97.1287 -22.2061 99.2871C-20.8808 112.526 -20.174 125.945 -24.1847 138.459Z" fill="#144035"/>
<path fill-rule="evenodd" clip-rule="evenodd" d="M-15.0456 143.493C-18.8918 156.193 -27.6083 167.849 -45.3622 177.296C-73.5075 192.273 -87.499 217.948 -93.262 244.126C-99.0266 270.311 -96.5476 296.963 -91.7852 313.806L-92.5596 314.011C-97.3545 297.053 -99.8431 270.269 -94.0481 243.945C-88.2516 217.614 -74.1564 191.707 -45.7506 176.592C-28.1601 167.232 -19.5956 155.732 -15.8164 143.253C-12.0299 130.75 -13.0329 117.221 -14.6717 103.768C-14.9308 101.642 -15.2059 99.5159 -15.4802 97.3966C-16.937 86.1423 -18.3707 75.0657 -17.2567 64.9207C-15.9287 52.8265 -10.9801 42.0248 1.81565 33.7334L1.82416 33.7279L1.83294 33.7228C16.0453 25.5171 30.3145 20.0316 43.9798 15.0135C45.3374 14.515 46.689 14.0211 48.0338 13.5297C60.2346 9.07111 71.8831 4.81441 82.5453 -0.893887C94.3729 -7.22615 104.973 -15.3386 113.725 -27.4764C122.476 -39.613 129.394 -55.7954 133.829 -78.2896C137.763 -123.963 144.597 -165.101 153.541 -195.228C158.013 -210.292 163.018 -222.622 168.463 -231.394C173.897 -240.148 179.827 -245.449 186.185 -246.267L186.3 -245.476C180.315 -244.706 174.554 -239.675 169.15 -230.969C163.757 -222.282 158.776 -210.026 154.313 -194.992C145.388 -164.93 138.56 -123.842 134.629 -78.1889L134.627 -78.1676L134.623 -78.1466C130.172 -55.5599 123.216 -39.2591 114.381 -27.0062C105.545 -14.7508 94.8434 -6.56594 82.9354 -0.190644C72.2207 5.5458 60.5177 9.82219 48.326 14.2771C46.9793 14.7692 45.6267 15.2635 44.2687 15.7621C30.6104 20.7777 16.3999 26.2425 2.25402 34.4086C-10.3065 42.551 -15.1507 53.122 -16.4569 65.0184C-17.5596 75.0606 -16.1413 86.0249 -14.685 97.2819C-14.4101 99.407 -14.1339 101.542 -13.873 103.684C-12.2339 117.14 -11.2067 130.816 -15.0456 143.493Z" fill="#144336"/>
<path fill-rule="evenodd" clip-rule="evenodd" d="M-6.26865 148.303C-10.0873 161.089 -18.6924 172.869 -36.1986 182.462C-63.9499 197.668 -78.1901 223.233 -84.3746 249.199C-90.5608 275.172 -88.6762 301.509 -84.2087 318.18L-84.9697 318.393C-89.469 301.603 -91.3598 275.131 -85.1409 249.021C-78.9202 222.903 -64.5747 197.112 -36.5708 181.767C-19.2299 172.265 -10.7755 160.645 -7.02326 148.082C-3.26353 135.494 -4.21089 121.919 -5.76451 108.477C-6.00425 106.403 -6.25856 104.332 -6.51198 102.267C-7.89695 90.9853 -9.25511 79.9216 -8.06051 69.851C-6.64245 57.8967 -1.62676 47.3095 11.1568 39.3291L11.1666 39.323L11.1767 39.3175C25.0257 31.7476 38.4143 26.1613 51.0657 20.8827C51.6232 20.6501 52.1792 20.4181 52.7338 20.1865C65.8813 14.6972 78.2036 9.46576 89.4359 2.5749C111.862 -11.1831 129.975 -31.5756 141.424 -73.9252C147.047 -116.999 154.224 -157.931 163.028 -188.533C167.43 -203.835 172.245 -216.576 177.487 -225.715C182.715 -234.829 188.432 -240.472 194.683 -241.361L194.787 -240.576C188.927 -239.743 183.378 -234.405 178.169 -225.324C172.974 -216.267 168.18 -203.597 163.785 -188.32C154.996 -157.769 147.823 -116.874 142.202 -73.8026L142.198 -73.7759L142.191 -73.75C130.694 -31.2031 112.461 -10.6266 89.8418 3.25021C78.549 10.1782 66.1709 15.4313 53.0303 20.9178C52.4788 21.148 51.9259 21.3787 51.3717 21.61C38.7172 26.89 25.3662 32.4607 11.5582 40.0073C-0.980597 47.8387 -5.88421 58.1879 -7.278 69.9376C-8.46022 79.9038 -7.11678 90.8543 -5.7322 102.14C-5.47831 104.21 -5.22304 106.291 -4.9817 108.379C-3.42791 121.822 -2.45751 135.543 -6.26865 148.303Z" fill="#154538"/>
<path fill-rule="evenodd" clip-rule="evenodd" d="M3.74132 153.812C0.0362879 166.735 -8.49813 178.62 -26.0373 188.196C-53.8396 203.376 -68.324 228.835 -74.7312 254.705C-81.1402 280.582 -79.4568 306.834 -74.9538 323.523L-75.7165 323.735C-80.253 306.922 -81.9408 280.532 -75.4979 254.518C-69.0532 228.497 -54.4624 202.816 -26.4114 187.5C-9.04225 178.017 -0.658739 166.296 2.98215 153.597C6.63046 140.872 5.52963 127.126 3.83978 113.565C3.58533 111.523 3.31738 109.484 3.05053 107.454C1.54943 96.0349 0.082937 84.8789 1.24852 74.8251C2.62637 62.9403 7.6831 52.5624 20.6478 45.0226L20.6588 45.0162L20.6703 45.0105C31.3953 39.6646 41.5804 35.1373 51.2212 30.852C55.017 29.1648 58.7285 27.515 62.3554 25.8675C75.2019 20.0322 86.9962 14.2217 97.7828 6.85694C119.329 -7.85424 136.893 -28.7938 150.681 -68.6046C157.562 -109.234 164.697 -150.183 173.148 -181.405C177.374 -197.018 181.935 -210.223 186.969 -219.745C189.487 -224.506 192.131 -228.363 194.924 -231.142C197.718 -233.923 200.68 -235.641 203.825 -236.083L203.929 -235.298C201.005 -234.887 198.193 -233.282 195.479 -230.581C192.763 -227.879 190.163 -224.098 187.667 -219.377C182.674 -209.933 178.131 -196.797 173.91 -181.202C165.469 -150.016 158.339 -109.093 151.455 -68.4437L151.449 -68.4111L151.438 -68.3798C137.601 -28.4098 119.937 -7.31305 98.2244 7.51164C87.3788 14.9167 75.533 20.7501 62.6774 26.5896C59.0394 28.2421 55.3214 29.8948 51.5217 31.5837C41.8898 35.8651 31.7337 40.3794 21.0297 45.7145C8.32329 53.1082 3.38641 63.2403 2.03329 74.9118C0.880097 84.8588 2.33056 95.8997 3.83148 107.325C4.09878 109.359 4.36769 111.406 4.62378 113.461C6.31366 127.023 7.43892 140.915 3.74132 153.812Z" fill="#16483A"/>
<path fill-rule="evenodd" clip-rule="evenodd" d="M13.7845 159.325C10.1988 172.393 1.74022 184.39 -15.8297 193.951C-43.6794 209.106 -58.4227 234.452 -65.0689 260.219C-71.717 285.992 -70.2525 312.151 -65.7169 328.856L-66.4811 329.067C-71.0521 312.232 -72.5189 285.933 -65.8356 260.023C-59.1504 234.105 -44.2997 208.542 -16.2057 193.254C1.18932 183.788 9.49707 171.96 13.021 159.118C16.5523 146.248 15.2916 132.322 13.4606 118.637C13.1916 116.626 12.9101 114.62 12.6299 112.623C11.0078 101.063 9.42935 89.8141 10.5653 79.7829C11.2327 73.8888 12.8379 68.3945 15.9306 63.4856C19.0245 58.5748 23.594 54.2708 30.1588 50.7397L30.171 50.7331L30.1836 50.7274C33.9697 49.0195 37.6559 47.3716 41.2479 45.7659C67.0274 34.2419 87.9491 24.8894 106.059 11.0713C126.666 -4.65157 143.646 -26.1703 159.923 -63.2967C163.045 -77.7387 166.005 -92.6062 168.918 -107.238C173.677 -131.14 178.311 -154.413 183.32 -174.178C187.361 -190.119 191.654 -203.813 196.468 -213.74C198.875 -218.703 201.421 -222.743 204.146 -225.655C206.871 -228.567 209.796 -230.371 212.957 -230.81L213.063 -230.024C210.14 -229.618 207.37 -227.942 204.723 -225.113C202.074 -222.282 199.569 -218.32 197.18 -213.395C192.402 -203.544 188.125 -189.915 184.088 -173.985C179.082 -154.236 174.457 -131.003 169.702 -107.121C166.785 -92.4713 163.82 -77.5771 160.688 -63.0923L160.68 -63.0531L160.664 -63.0164C144.342 -25.7754 127.283 -4.12664 106.538 11.7021C88.3486 25.5803 67.3345 34.9734 41.5677 46.491C37.9788 48.0952 34.2977 49.7406 30.5192 51.4451C24.0677 54.9176 19.6102 59.1293 16.5998 63.9075C13.5863 68.6907 12.0098 74.0625 11.3522 79.8696C10.2286 89.7915 11.7897 100.923 13.4118 112.491C13.6924 114.492 13.9749 116.506 14.2455 118.529C16.0765 132.213 17.3629 146.284 13.7845 159.325Z" fill="#164B3D"/>
<path fill-rule="evenodd" clip-rule="evenodd" d="M23.6002 164.693C20.1193 177.901 11.7483 190.02 -5.79185 199.601C-33.593 214.786 -48.6077 240.015 -55.5471 265.648C-62.4887 291.289 -61.3394 317.3 -56.8425 333.98L-57.605 334.192C-62.1386 317.375 -63.2875 291.221 -56.3092 265.445C-49.3289 239.661 -34.2058 214.221 -6.16579 198.905C11.1949 189.422 19.4155 177.477 22.8367 164.495C26.2652 151.485 24.8846 137.399 22.9555 123.612C22.6788 121.635 22.3907 119.664 22.1041 117.702C20.3972 106.022 18.7431 94.7021 19.8712 84.7128C20.5314 78.8669 22.1452 73.4542 25.2688 68.6724C28.3937 63.8886 33.0148 59.7592 39.6543 56.4588L39.6674 56.4523L39.6809 56.4468C71.598 43.4122 94.4164 31.8847 113.987 15.0558C133.548 -1.76527 149.888 -23.9047 168.808 -58.1997C174.76 -79.8456 179.739 -103.574 184.486 -126.199C187.484 -140.488 190.39 -154.337 193.39 -166.943C197.263 -183.213 201.293 -197.41 205.88 -207.759C208.174 -212.933 210.617 -217.166 213.263 -220.219C215.911 -223.272 218.788 -225.173 221.95 -225.618L222.055 -224.833C219.148 -224.424 216.431 -222.668 213.858 -219.701C211.284 -216.732 208.88 -212.579 206.602 -207.441C202.046 -197.164 198.03 -183.028 194.159 -166.764C191.169 -154.204 188.267 -140.373 185.27 -126.09C180.513 -103.424 175.518 -79.6189 169.557 -57.9478L169.545 -57.9021L169.522 -57.8606C150.57 -23.5023 134.169 -1.25934 114.498 15.6565C94.8309 32.5688 71.9196 44.1342 39.9879 57.1754C33.4655 60.42 28.9637 64.4576 25.9284 69.1041C22.8899 73.7557 21.3061 79.0405 20.656 84.7969C19.5405 94.6746 21.1763 105.875 22.8834 117.565C23.1704 119.53 23.4594 121.508 23.7377 123.497C25.6665 137.281 27.0737 151.512 23.6002 164.693Z" fill="#174E3F"/>
<path fill-rule="evenodd" clip-rule="evenodd" d="M35.6459 171.334C32.3021 184.705 24.014 196.946 6.42712 206.503C-21.4467 221.649 -36.7491 246.752 -43.9453 272.275C-51.1436 297.806 -50.2199 323.723 -45.6719 340.43L-46.4367 340.64C-51.0237 323.79 -51.9445 297.727 -44.7081 272.061C-37.4696 246.388 -22.0579 221.079 6.05032 205.805C23.4522 196.349 31.5901 184.286 34.8769 171.143C38.1709 157.971 36.6026 143.68 34.5062 129.75C34.2126 127.8 33.9086 125.856 33.6062 123.923C31.755 112.087 29.9686 100.666 31.0577 90.7074C31.6927 84.9018 33.3058 79.569 36.4645 74.9218C39.6245 70.2726 44.3145 66.3349 51.063 63.2944L51.0768 63.2882L51.091 63.2831C84.1775 51.312 105.553 38.1968 124.077 20.2619C142.365 2.55549 157.884 -19.8574 179.145 -50.5632L179.989 -51.7826C188.513 -76.5099 194.644 -106.144 200.319 -133.576C202.092 -142.146 203.82 -150.502 205.564 -158.425C209.224 -175.062 212.95 -189.802 217.292 -200.599C219.462 -205.997 221.795 -210.432 224.366 -213.629C226.937 -216.827 229.776 -218.823 232.958 -219.263L233.064 -218.476C230.157 -218.075 227.484 -216.243 224.983 -213.132C222.483 -210.022 220.184 -205.669 218.027 -200.304C213.713 -189.575 209.998 -174.893 206.338 -158.256C204.6 -150.356 202.874 -142.016 201.103 -133.456C195.422 -105.995 189.272 -76.2642 180.721 -51.4733L180.703 -51.4214L179.76 -50.0596C158.53 -19.3996 142.972 3.07052 124.627 20.832C106.01 38.8579 84.5337 52.025 51.373 64.0245C44.7454 67.013 40.183 70.8603 37.1195 75.3674C34.0524 79.8797 32.4706 85.0786 31.8458 90.792C30.7691 100.636 32.5354 111.936 34.3873 123.782C34.69 125.718 34.9949 127.669 35.2901 129.63C37.3861 143.557 38.9825 157.991 35.6459 171.334Z" fill="#185141"/>
<path fill-rule="evenodd" clip-rule="evenodd" d="M47.6664 177.946C44.4608 191.484 36.2625 203.855 18.6444 213.397C-9.27734 228.518 -24.8817 253.49 -32.3597 278.89C-39.8401 304.298 -39.1778 330.101 -34.5971 346.824L-35.3635 347.033C-39.9852 330.16 -40.6417 304.207 -33.122 278.665C-25.5999 253.116 -9.88541 227.944 18.2657 212.698C35.6931 203.26 43.7418 191.072 46.8931 177.763C50.0515 164.424 48.2997 149.927 46.042 135.855C45.733 133.93 45.4145 132.012 45.0979 130.106C43.1069 118.118 41.1941 106.601 42.2488 96.6835C42.8615 90.9224 44.4763 85.6743 47.6719 81.168C50.869 76.6596 55.6287 72.9213 62.485 70.1494L62.4991 70.1437L62.5137 70.139C96.7973 59.2607 116.625 44.4708 134.035 25.3634C142.563 16.0026 150.512 5.60524 159.301 -5.89184L159.871 -6.6374C168.875 -18.4145 178.78 -31.3292 191.08 -45.423C202.147 -70.9679 208.9 -105.133 214.993 -135.961C215.925 -140.676 216.842 -145.313 217.756 -149.829C221.2 -166.845 224.613 -182.152 228.697 -193.417C230.739 -199.049 232.956 -203.695 235.446 -207.045C237.934 -210.395 240.728 -212.492 243.927 -212.929L244.035 -212.142C241.132 -211.745 238.507 -209.832 236.084 -206.571C233.661 -203.311 231.475 -198.748 229.444 -193.146C225.383 -181.945 221.98 -166.693 218.535 -149.671C217.622 -145.162 216.707 -140.53 215.775 -135.817C209.68 -104.977 202.904 -70.6869 191.784 -45.0502L191.76 -44.9935L191.719 -44.947C179.419 -30.8565 169.516 -17.9448 160.502 -6.1548L159.922 -5.39526C151.141 6.09068 143.174 16.512 134.622 25.8985C117.128 45.0997 97.1852 59.9688 62.7689 70.8917C56.0366 73.616 51.4131 77.266 48.3202 81.6276C45.2236 85.9942 43.6415 91.1017 43.039 96.7678C41.9967 106.569 43.8879 117.961 45.8799 129.962C46.1967 131.871 46.516 133.794 46.8266 135.73C49.0836 149.797 50.865 164.437 47.6664 177.946Z" fill="#195544"/>
<path fill-rule="evenodd" clip-rule="evenodd" d="M59.7379 184.573C56.6776 198.287 48.5739 210.793 30.9233 220.319C2.952 235.415 -12.9696 260.248 -20.7437 285.519C-28.5204 310.798 -28.1331 336.481 -23.5186 353.22L-24.2866 353.429C-28.9444 336.532 -29.3227 310.695 -21.5052 285.283C-13.6853 259.864 2.34713 234.837 30.5428 219.619C47.9965 210.199 55.9514 197.881 58.9603 184.398C61.976 170.885 60.0314 156.171 57.6045 141.951C57.2797 140.048 56.9461 138.153 56.6147 136.271C54.4767 124.128 52.4321 112.515 53.4503 102.644C54.0397 96.9297 55.6567 91.7701 58.8918 87.411C62.1282 83.0501 66.9616 79.5209 73.9312 77.0302L73.9454 77.0251L73.96 77.0211C109.502 67.2855 127.701 50.7454 143.94 30.4063C148.33 24.9072 152.581 19.123 156.996 13.1172C168.898 -3.07731 181.986 -20.8839 202.18 -39.063C209.376 -52.1984 214.724 -68.9853 219.078 -86.8553C222.971 -102.83 226.063 -119.648 228.973 -135.47C229.322 -137.371 229.669 -139.257 230.014 -141.126C233.232 -158.54 236.315 -174.441 240.127 -186.196C242.033 -192.073 244.129 -196.94 246.532 -200.45C248.934 -203.957 251.68 -206.161 254.897 -206.596L255.006 -205.808C252.107 -205.416 249.532 -203.419 247.19 -200C244.85 -196.582 242.782 -191.798 240.885 -185.949C237.091 -174.252 234.017 -158.405 230.798 -140.979C230.452 -139.111 230.105 -137.224 229.756 -135.323C226.847 -119.504 223.75 -102.663 219.852 -86.6651C215.486 -68.7465 210.109 -51.8563 202.847 -38.6206L202.815 -38.5616L202.765 -38.5167C182.607 -20.3807 169.579 -2.65505 157.679 13.5362C153.254 19.5566 148.985 25.3648 144.563 30.9031C128.252 51.334 109.922 67.9924 74.1875 77.7839C67.3443 80.232 62.6563 83.6762 59.5323 87.8856C56.4047 92.0999 54.822 97.1117 54.2426 102.728C53.2368 112.479 55.258 123.966 57.3975 136.124C57.729 138.008 58.0634 139.908 58.3897 141.82C60.8158 156.035 62.7913 170.891 59.7379 184.573Z" fill="#1A5846"/>
<path fill-rule="evenodd" clip-rule="evenodd" d="M71.658 191.098C68.7322 204.984 60.7306 217.633 43.0893 227.168C15.1345 242.277 -1.11258 266.969 -9.2201 292.09C-17.3303 317.22 -17.2838 342.747 -12.6848 359.474L-13.4521 359.683C-18.0965 342.791 -18.13 317.106 -9.97751 291.845C-1.82226 266.575 14.5363 241.696 42.7095 226.469C60.1482 217.044 68.0021 204.588 70.8793 190.933C73.763 177.247 71.6539 162.329 69.0881 147.976C68.7518 146.095 68.4074 144.223 68.0656 142.364C65.8064 130.081 63.6562 118.39 64.6522 108.583C65.2271 102.922 66.8513 97.8577 70.1254 93.6508C73.4008 89.4421 78.3014 86.1257 85.3694 83.917L85.3832 83.9127L85.3973 83.9094C103.787 79.6026 117.089 72.8509 127.664 64.4844C138.242 56.1148 146.109 46.1166 153.617 35.2879C155.975 31.8858 158.298 28.4016 160.659 24.8615C173.308 5.88867 187.029 -14.6906 213.046 -32.8441C221.097 -44.3398 226.882 -60.2926 231.405 -77.8485C235.933 -95.428 239.188 -114.576 242.194 -132.402L242.342 -133.275C245.29 -150.755 248.017 -166.925 251.498 -178.985C253.268 -185.114 255.24 -190.21 257.551 -193.886C259.86 -197.558 262.551 -199.878 265.776 -200.316L265.884 -199.528C262.999 -199.137 260.481 -197.049 258.225 -193.463C255.973 -189.88 254.025 -184.867 252.263 -178.763C248.794 -166.748 246.073 -150.615 243.12 -133.105L242.979 -132.268C239.973 -114.448 236.714 -95.2666 232.175 -77.649C227.638 -60.037 221.813 -43.9485 213.658 -32.3296L213.617 -32.2723L213.56 -32.2322C187.638 -14.1611 173.993 6.30144 161.335 25.283C158.971 28.8292 156.64 32.3237 154.271 35.7413C146.748 46.5922 138.829 56.6659 128.158 65.1078C117.487 73.5507 104.08 80.3487 85.5946 84.68C78.6539 86.8511 73.908 90.0868 70.754 94.1394C67.5967 98.1963 66.0085 103.105 65.4439 108.665C64.4603 118.35 66.5857 129.912 68.8468 142.212C69.1887 144.072 69.5336 145.949 69.8714 147.838C72.4363 162.186 74.5771 177.244 71.658 191.098Z" fill="#1B5C49"/>
<path fill-rule="evenodd" clip-rule="evenodd" d="M84.94 198.396C82.1067 212.434 74.2154 225.235 56.6904 234.84C28.922 250.06 12.3583 274.617 3.85242 299.554C-4.65647 324.499 -5.08978 349.791 -0.632127 366.433L-1.39306 366.646C-5.89676 349.832 -5.44558 324.378 3.10737 299.303C11.6633 274.22 28.3388 249.481 56.3184 234.146C73.6359 224.654 81.3811 212.053 84.1678 198.246C86.961 184.407 84.7786 169.334 82.1661 154.899C81.8303 153.043 81.4872 151.198 81.1468 149.366C78.8462 136.991 76.6671 125.269 77.6805 115.556C78.2638 109.965 79.9062 105.005 83.2124 100.952C86.5197 96.8967 91.4617 93.7856 98.5777 91.8393L98.5906 91.8358L98.6037 91.8331C117.476 88.0249 130.561 81.0396 140.637 72.1527C150.72 63.2593 157.809 52.4455 164.674 40.9386C165.906 38.8725 167.131 36.7844 168.365 34.6817C180.858 13.3859 194.229 -9.40587 225.145 -25.9142C234.048 -35.7259 240.305 -50.7979 245.049 -68.0032C249.799 -85.2292 253.018 -104.539 255.873 -122.743C256.201 -124.839 256.525 -126.92 256.846 -128.981C259.31 -144.817 261.596 -159.506 264.51 -170.8C266.156 -177.181 268.011 -182.509 270.227 -186.358C272.44 -190.2 275.061 -192.646 278.268 -193.103L278.372 -192.318C275.524 -191.913 273.074 -189.727 270.908 -185.966C268.746 -182.212 266.913 -176.967 265.272 -170.608C262.369 -159.355 260.09 -144.709 257.624 -128.864C257.304 -126.804 256.98 -124.723 256.651 -122.627C253.797 -104.425 250.572 -85.0735 245.808 -67.7983C241.048 -50.5323 234.736 -35.2859 225.677 -25.3314L225.631 -25.2802L225.57 -25.2477C194.817 -8.84691 181.543 13.7762 169.039 35.0856C167.807 37.186 166.582 39.2737 165.348 41.3414C158.477 52.859 151.335 63.7652 141.153 72.7461C130.966 81.7313 117.755 88.7732 98.765 92.6071C91.7751 94.5211 86.9961 97.5561 83.8198 101.451C80.6404 105.349 79.0365 110.145 78.4641 115.632C77.4637 125.22 79.6173 136.811 81.9202 149.206C82.2606 151.037 82.6042 152.887 82.9414 154.75C85.5526 169.178 87.7668 184.391 84.94 198.396Z" fill="#1B604C"/>
<path fill-rule="evenodd" clip-rule="evenodd" d="M99.3831 206.351C96.7489 220.605 88.9624 233.558 71.3236 243.102C43.3771 258.222 26.4381 282.612 17.634 307.424C8.82675 332.244 8.17301 357.452 12.7593 374.165L11.9925 374.375C7.35653 357.48 8.03207 332.106 16.8845 307.157C25.7402 282.2 42.7914 257.635 70.9444 242.403C88.3679 232.976 96.0097 220.229 98.6011 206.205C101.199 192.15 98.7269 176.791 95.852 162.148C95.489 160.299 95.1196 158.461 94.7533 156.639C93.6712 151.257 92.6166 146.011 91.8381 141.023C90.7958 134.344 90.2423 128.095 90.7821 122.551C91.3223 117.002 92.9599 112.137 96.3187 108.253C99.6782 104.369 104.725 101.507 112.007 99.9013L112.019 99.8987L112.031 99.8969C131.732 96.7937 144.768 89.668 154.423 80.2979C164.09 70.9166 170.391 59.2661 176.591 47.0568C177.159 45.94 177.725 44.8186 178.293 43.6941C190.128 20.2583 202.652 -4.54189 238.575 -18.2155C248.419 -26.2469 255.118 -40.4302 259.991 -57.333C264.868 -74.2507 267.896 -93.8182 270.443 -112.502C270.943 -116.171 271.425 -119.806 271.899 -123.38C273.836 -137.995 275.638 -151.593 278.015 -162.306C279.494 -168.972 281.203 -174.553 283.321 -178.581C285.434 -182.598 288.006 -185.163 291.253 -185.606L291.361 -184.818C288.502 -184.429 286.099 -182.153 284.025 -178.21C281.957 -174.278 280.266 -168.779 278.791 -162.133C276.422 -151.457 274.626 -137.905 272.69 -123.294C272.215 -119.715 271.733 -116.073 271.231 -112.394C268.684 -93.7096 265.65 -74.0908 260.755 -57.1122C255.864 -40.1469 249.095 -25.7429 239.027 -17.5586L238.978 -17.5183L238.918 -17.4955C203.242 -3.93771 190.834 20.6282 178.99 44.0778C178.427 45.1939 177.864 46.3074 177.301 47.4171C171.101 59.6236 164.75 71.3847 154.977 80.8683C145.195 90.3611 132.008 97.5527 112.167 100.68C105.011 102.26 100.138 105.053 96.9205 108.773C93.7006 112.496 92.1032 117.188 91.5735 122.629C91.0434 128.074 91.5849 134.245 92.6237 140.901C93.3994 145.871 94.4491 151.092 95.5302 156.47C95.8971 158.295 96.2676 160.138 96.6323 161.996C99.5058 176.632 102.011 192.129 99.3831 206.351Z" fill="#1C644F"/>
<path fill-rule="evenodd" clip-rule="evenodd" d="M113.571 214.143C111.115 228.606 103.442 241.719 85.7527 251.237C57.7284 266.316 40.41 290.539 31.2599 315.2C22.1064 339.87 21.1408 364.943 25.7812 381.683L25.0119 381.891C20.3188 364.96 21.311 339.716 30.511 314.92C39.7144 290.116 57.1453 265.724 85.3705 250.537C102.837 241.138 110.368 228.238 112.784 214.006C115.205 199.741 112.492 184.121 109.405 169.295C109.021 167.452 108.632 165.622 108.246 163.808C107.081 158.335 105.949 153.014 105.106 147.973C103.984 141.261 103.369 135.012 103.879 129.521C104.39 124.025 106.03 119.262 109.439 115.552C112.849 111.843 117.987 109.231 125.41 107.96L125.42 107.958L125.43 107.957C145.906 105.535 158.838 98.2327 168.025 88.3429C177.228 78.4354 182.696 65.9084 188.198 52.9645C188.362 52.5772 188.527 52.1896 188.692 51.8016C194.025 39.2435 199.495 26.3657 208.539 15.3161C217.867 3.91981 230.986 -5.52003 251.644 -10.722C262.458 -16.9157 269.638 -30.1631 274.677 -46.7355C279.718 -63.3148 282.59 -83.1247 284.858 -102.284C285.457 -107.348 286.015 -112.369 286.559 -117.271C288.072 -130.898 289.484 -143.614 291.418 -153.846C292.733 -160.802 294.295 -166.644 296.31 -170.858C298.318 -175.058 300.83 -177.751 304.101 -178.188L304.211 -177.399C301.354 -177.017 299.007 -174.646 297.031 -170.512C295.061 -166.393 293.514 -160.633 292.202 -153.694C290.275 -143.495 288.868 -130.824 287.356 -117.21C286.811 -112.301 286.252 -107.269 285.65 -102.186C283.382 -83.0247 280.504 -63.1533 275.441 -46.5008C270.383 -29.8654 263.115 -16.3448 251.997 -10.004L251.949 -9.97706L251.896 -9.96379C231.37 -4.80554 218.385 4.5487 209.159 15.8212C200.187 26.7817 194.757 39.5668 189.412 52.1516C189.252 52.5274 189.093 52.903 188.933 53.2783C183.439 66.2045 177.923 78.8609 168.612 88.8852C159.286 98.9256 146.176 106.303 125.539 108.746C118.239 109.998 113.285 112.549 110.029 116.092C106.772 119.635 105.174 124.215 104.674 129.599C104.173 134.988 104.775 141.156 105.893 147.847C106.733 152.869 107.86 158.165 109.024 163.633C109.41 165.45 109.801 167.286 110.186 169.137C113.272 183.955 116.02 199.712 113.571 214.143Z" fill="#1E6852"/>
<path fill-rule="evenodd" clip-rule="evenodd" d="M127.936 222.024C125.499 236.607 117.941 249.885 100.535 259.57C72.9615 274.913 55.3509 299.021 45.7118 323.45C36.069 347.889 34.4184 372.612 38.7216 389.155L37.9675 389.371C33.6132 372.632 35.2976 347.733 44.9888 323.171C54.6838 298.6 72.4063 274.33 100.171 258.88C117.352 249.321 124.769 236.262 127.168 221.909C129.573 207.522 126.939 191.821 123.957 176.995C123.592 175.177 123.221 173.372 122.853 171.584C121.725 166.094 120.63 160.767 119.826 155.737C118.76 149.07 118.199 142.889 118.751 137.495C119.304 132.096 120.975 127.455 124.4 123.904C127.824 120.354 132.953 117.942 140.331 116.908L140.338 116.907L140.347 116.906C161.079 114.873 173.669 107.252 182.292 96.7792C190.807 86.436 195.478 73.2854 200.255 59.8363L200.472 59.2275C205.316 45.5939 210.327 31.7028 219.651 20.3604C228.986 9.00496 242.62 0.229581 264.653 -3.25736C276.234 -7.6949 283.9 -19.9772 289.228 -36.1393C294.556 -52.3006 297.507 -72.2222 299.737 -91.7285C300.456 -98.0104 301.1 -104.251 301.725 -110.308C303.038 -123.037 304.267 -134.951 305.928 -144.722C307.154 -151.932 308.62 -158.011 310.543 -162.409C312.458 -166.787 314.884 -169.627 318.097 -170.107L318.194 -169.326C315.411 -168.91 313.145 -166.426 311.255 -162.103C309.372 -157.799 307.919 -151.8 306.696 -144.605C305.04 -134.86 303.815 -122.991 302.504 -110.279C301.878 -104.216 301.233 -97.9616 300.512 -91.6547C298.281 -72.1449 295.323 -52.1511 289.967 -35.9042C284.617 -19.6759 276.836 -7.06657 264.875 -2.50475L264.837 -2.49017L264.797 -2.48379C242.911 0.971841 229.449 9.66257 220.246 20.8576C211.026 32.0725 206.056 45.8261 201.205 59.4802L200.965 60.1555C196.206 73.554 191.493 86.8221 182.886 97.2769C174.113 107.932 161.322 115.639 140.413 117.691C133.151 118.71 128.211 121.07 124.952 124.449C121.693 127.828 120.067 132.275 119.526 137.559C118.985 142.849 119.533 148.948 120.596 155.594C121.397 160.605 122.486 165.908 123.614 171.394C123.982 173.185 124.354 174.995 124.721 176.821C127.702 191.639 130.369 207.474 127.936 222.024Z" fill="#1F6C55"/>
<path fill-rule="evenodd" clip-rule="evenodd" d="M143.253 230.439C141.109 245.305 133.676 258.756 116.017 268.299C88.0461 283.416 69.9643 307.307 60.0269 331.617C50.0854 355.937 48.3105 380.636 52.9043 397.342L52.137 397.552C47.486 380.637 49.2994 355.756 59.29 331.316C69.2847 306.866 87.4786 282.818 115.637 267.6C133.06 258.184 140.355 244.959 142.466 230.324C144.582 215.655 141.491 199.559 138.086 184.426C137.673 182.59 137.255 180.768 136.842 178.964C135.554 173.346 134.307 167.909 133.372 162.797C132.138 156.045 131.442 149.825 131.919 144.463C132.397 139.095 134.054 134.553 137.559 131.204C141.06 127.856 146.352 125.75 153.993 125.141L153.999 125.14L154.005 125.14C175.903 124.029 188.518 116.297 196.68 105.291C204.465 94.7937 208.224 81.2915 212.051 67.5432C212.25 66.8301 212.448 66.1163 212.648 65.4023C216.683 50.9568 221.026 36.4099 230.479 25.1919C239.95 13.9527 254.509 6.09677 278.874 4.91451C291.666 2.52189 299.856 -8.75207 305.295 -24.593C310.733 -40.4291 313.372 -60.6934 315.15 -80.7991C315.81 -88.2699 316.351 -95.722 316.874 -102.913C317.756 -115.049 318.583 -126.44 319.837 -135.921C320.836 -143.472 322.109 -149.85 323.911 -154.454C325.702 -159.032 328.075 -162.003 331.362 -162.449L331.471 -161.661C328.648 -161.278 326.427 -158.7 324.652 -154.163C322.887 -149.653 321.623 -143.353 320.626 -135.815C319.375 -126.354 318.55 -115.007 317.67 -102.892C317.148 -95.6965 316.605 -88.2304 315.942 -80.7276C314.165 -60.6182 311.52 -40.2691 306.048 -24.3338C300.582 -8.41419 292.244 3.23646 278.995 5.7009L278.968 5.70583L278.941 5.70714C254.733 6.87648 240.393 14.6627 231.088 25.7044C221.763 36.7715 217.456 51.1509 213.414 65.6173C213.211 66.347 213.007 67.0769 212.804 67.8066C208.99 81.5096 205.195 95.1454 197.319 105.765C188.998 116.986 176.15 124.811 154.053 125.934C146.522 126.535 141.432 128.602 138.109 131.778C134.789 134.953 133.179 139.287 132.712 144.535C132.244 149.789 132.925 155.924 134.155 162.656C135.086 167.748 136.327 173.161 137.614 178.774C138.029 180.581 138.448 182.408 138.863 184.253C142.266 199.377 145.393 215.607 143.253 230.439Z" fill="#207158"/>
<path fill-rule="evenodd" clip-rule="evenodd" d="M158.834 238.992C156.827 254.054 149.517 267.681 131.919 277.264C104.046 292.441 85.5831 316.17 75.2211 340.289C64.8546 364.419 62.6133 388.898 67.1305 405.556L66.3666 405.767C61.7904 388.892 64.0775 364.224 74.4942 339.978C84.9154 315.721 103.49 291.843 131.543 276.567C148.899 267.117 156.073 253.723 158.049 238.891C160.03 224.024 156.79 207.706 153.265 192.438C152.84 190.6 152.412 188.777 151.988 186.974C150.654 181.298 149.365 175.818 148.399 170.686C147.125 163.925 146.401 157.729 146.871 152.44C147.341 147.145 149.011 142.721 152.559 139.556C156.101 136.397 161.456 134.547 169.182 134.268L169.188 134.268C191.748 133.795 204.168 125.82 211.794 114.23C218.869 103.476 221.843 89.583 224.86 75.4872C225.109 74.3255 225.358 73.1625 225.609 71.9997C228.904 56.7716 232.647 41.5996 242.156 30.4662C251.69 19.3034 266.959 12.2612 293.151 13.1274C306.939 12.6877 315.639 2.43097 321.295 -13.0097C326.951 -28.4493 329.504 -48.9315 331.064 -69.5119C331.71 -78.042 332.186 -86.5947 332.643 -94.8045C333.287 -106.37 333.893 -117.255 334.884 -126.437C335.732 -134.292 336.866 -140.946 338.56 -145.752C340.243 -150.524 342.54 -153.642 345.825 -154.099L345.931 -153.313C343.135 -152.924 340.98 -150.237 339.306 -145.49C337.644 -140.776 336.518 -134.199 335.671 -126.355C334.681 -117.184 334.078 -106.343 333.436 -94.8018C332.979 -86.5907 332.503 -78.0254 331.853 -69.455C330.293 -48.8716 327.735 -28.2915 322.038 -12.7389C316.343 2.8078 307.452 13.4716 293.16 13.9208L293.147 13.9213L293.134 13.9208C267.096 13.0574 252.089 20.0534 242.756 30.9808C233.397 41.9393 229.683 56.9123 226.383 72.1648C226.13 73.3362 225.879 74.5094 225.628 75.6825C222.62 89.7387 219.616 103.779 212.454 114.665C204.663 126.507 191.98 134.583 169.205 135.061C161.58 135.337 156.435 137.159 153.084 140.148C149.737 143.133 148.119 147.336 147.659 152.507C147.2 157.684 147.907 163.793 149.177 170.536C150.14 175.649 151.422 181.104 152.755 186.775C153.18 188.582 153.61 190.41 154.036 192.256C157.559 207.515 160.836 223.965 158.834 238.992Z" fill="#21755C"/>
</svg>
